<?xml version="1.0" encoding="UTF-8" standalone="no"?>
<svg
   xmlns:dc="http://purl.org/dc/elements/1.1/"
   xmlns:cc="http://creativecommons.org/ns#"
   xmlns:rdf="http://www.w3.org/1999/02/22-rdf-syntax-ns#"
   xmlns:svg="http://www.w3.org/2000/svg"
   xmlns="http://www.w3.org/2000/svg"
   xmlns:xlink="http://www.w3.org/1999/xlink"
   width="793.70081"
   height="1122.5197"
   viewBox="0 0 210 297"
   version="1.1"
   id="svg8">
  <defs
     id="defs2">
    <filter
       style="color-interpolation-filters:sRGB"
       id="filter1164"
       x="-2.9211344e-05"
       width="1.0000584"
       y="-6.6246265e-06"
       height="1.0000132">
      <feGaussianBlur
         stdDeviation="0.0013335996"
         id="feGaussianBlur1166" />
    </filter>
  </defs>
  <metadata
     id="metadata5">
    <rdf:RDF>
      <cc:Work
         rdf:about="">
        <dc:format>image/svg+xml</dc:format>
        <dc:type
           rdf:resource="http://purl.org/dc/dcmitype/StillImage" />
        <dc:title></dc:title>
      </cc:Work>
    </rdf:RDF>
  </metadata>
  <g
     id="layer1">
    <path
       style="opacity:0.996;fill:#ffcc00;fill-opacity:1;stroke:none;stroke-width:2.85667;stroke-opacity:0.983806"
       id="path1154"
       d="M 210.01765,140.18888 A 99.21875,99.21875 0 0 1 111.59161,240.18547 99.21875,99.21875 0 0 1 11.586433,141.76817 99.21875,99.21875 0 0 1 109.99501,41.754396 99.21875,99.21875 0 0 1 210.01737,140.15424" />
    <path
       style="fill:#828282;fill-opacity:1;stroke-width:2.92869"
       id="path843"
       d="m 150.88463,202.23369 a 40.025452,9.8843346 0 0 1 -39.70566,9.96182 40.025452,9.8843346 0 0 1 -40.342706,-9.80449 40.025452,9.8843346 0 0 1 39.698626,-9.96353 40.025452,9.8843346 0 0 1 40.34963,9.80275" />
    <path
       id="path833"
       style="fill:#d1d1d1;fill-opacity:1;stroke-width:12"
       d="M 283.55078 278.59961 L 261.29297 308.38867 A 164 40.499999 0 0 0 255.00391 319.25781 L 254.55859 319.25781 L 255 746.51367 L 255 746.75 L 255.00391 746.75 A 164 40.499998 0 0 0 255.00586 746.82617 A 164 40.499998 0 0 0 420.30469 786.99805 A 164 40.499998 0 0 0 582.99414 746.18164 L 582.99414 746.16797 L 582.99414 319.84375 A 164 40.499999 0 0 0 582.99414 319.18164 L 582.99414 319.16797 A 164 40.499999 0 0 0 577.00781 308.65234 L 577.35352 308.65234 L 554.1543 279.34766 L 283.55078 278.59961 z "
       transform="scale(0.26458333)" />
    <path
       id="path853"
       style="fill:#ff3838;fill-opacity:1;stroke-width:12"
       d="M 283.55078 278.59961 L 261.29297 308.38867 A 164 40.499998 0 0 0 255.04492 318.57617 A 164 40.499999 0 0 0 420.08398 356.7793 A 164 40.499999 0 0 0 582.73438 317.20117 A 164 40.499998 0 0 0 577.00781 308.65234 L 577.35352 308.65234 L 554.1543 279.34766 L 283.55078 278.59961 z "
       transform="scale(0.26458333)" />
    <path
       style="fill:#dedede;fill-opacity:1;stroke-width:2.92022"
       xlink:href="#path847"
       id="path913"
       d="m 110.27148,60.457031 a 39.909618,9.8557291 0 0 0 -39.58398,9.935547 39.909618,9.8557291 0 0 0 40.22656,9.775391 39.909618,9.8557291 0 0 0 39.58985,-9.931641 v -0.0039 a 39.909618,9.8557291 0 0 0 -40.23243,-9.775391 z" />
    <path
       id="path847"
       style="fill:#dedede;fill-opacity:1;stroke-width:2.92022"
       d="m 150.50422,70.235441 a 39.909618,9.8557291 0 0 1 -39.59075,9.932995 39.909618,9.8557291 0 0 1 -40.225956,-9.776119 39.909618,9.8557291 0 0 1 39.583736,-9.934701 39.909618,9.8557291 0 0 1 40.23286,9.774385" />
    <path
       style="fill:#9b9b9b;fill-opacity:1;stroke-width:2.54784"
       id="path849"
       d="m 145.67981,69.38544 a 34.820473,8.598959 0 0 1 -34.54227,8.666372 34.820473,8.598959 0 0 1 -35.096465,-8.529501 34.820473,8.598959 0 0 1 34.536145,-8.667861 34.820473,8.598959 0 0 1 35.1025,8.527988" />
    <path
       style="fill:#dedede;fill-opacity:1;stroke-width:2.27346"
       id="path851"
       d="m 142.19461,69.789602 a 31.070576,7.6729174 0 0 1 -30.82233,7.733071 31.070576,7.6729174 0 0 1 -31.31685,-7.610939 31.070576,7.6729174 0 0 1 30.81687,-7.734399 31.070576,7.6729174 0 0 1 31.32223,7.609589" />
    <path
       id="rect881"
       style="fill:#ff3838;fill-opacity:1;stroke:none;stroke-width:2.85359;stroke-opacity:0.983806"
       d="m 67.515555,121.44375 v 34.70143 a 43.391666,9.2628895 0 0 0 -0.09095,0.42348 43.391666,9.2628904 0 0 0 0.09095,0.27115 v 0.28322 h 0.135392 a 43.391666,9.2628904 0 0 0 43.440233,8.1832 43.391666,9.2628904 0 0 0 42.75037,-8.1832 h 0.45733 v -35.20756 a 43.391666,9.2628902 0 0 1 -42.94311,8.62634 43.391666,9.2628902 0 0 1 -43.666583,-8.73757 43.391666,9.2628893 0 0 1 0.07131,-0.36049 z" />
    <g
       aria-label="POSTER"
       id="text1137"
       style="font-style:normal;font-variant:normal;font-weight:normal;font-stretch:normal;font-size:30.5185px;line-height:1.25;font-family:'Bernard MT Condensed';-inkscape-font-specification:'Bernard MT Condensed, Normal';font-variant-ligatures:normal;font-variant-caps:normal;font-variant-numeric:normal;font-variant-east-asian:normal;fill:#ffcc00;fill-opacity:1;stroke:none;stroke-width:0.762964"
       transform="matrix(0.98789254,0,0,0.9866717,-126.73268,7.1562932)">
      <path
         d="m 204.08298,143.53436 c -0.0411,2.27542 -0.11221,4.54223 -0.21322,6.80044 -0.0352,0.78601 0.175,1.37257 0.64006,1.75681 0.22284,0.18918 0.3723,0.40446 0.44777,0.64696 0.0855,0.23126 0.11484,0.63335 0.0849,1.20392 -0.0285,0.54358 -0.10066,0.8676 -0.21431,0.9719 -0.11291,0.0908 -0.32864,0.089 -0.64613,-0.008 -2.17919,-0.66219 -4.33385,-1.40489 -6.45848,-2.23253 -0.33891,-0.13202 -0.46672,-0.60928 -0.39805,-1.43082 0.0546,-0.65341 0.10725,-1.04206 0.16483,-1.16901 0.0582,-0.13929 0.22586,-0.21635 0.5034,-0.2337 0.24878,-0.0146 0.40519,-0.072 0.46892,-0.17021 0.0739,-0.10793 0.12092,-0.31385 0.14011,-0.61758 0.5041,-7.9768 0.45341,-16.12764 -0.15206,-24.45253 -0.0431,-0.59327 -0.33317,-1.13225 -0.8717,-1.61959 -0.28571,-0.27465 -0.45287,-0.62736 -0.50185,-1.05736 -0.0347,-0.32553 -0.0702,-0.65134 -0.10677,-0.97742 -0.0404,-0.41498 -0.0341,-0.67615 0.0215,-0.78434 0.0639,-0.11943 0.22245,-0.14836 0.4761,-0.0871 2.49673,0.60297 5.0048,1.16573 7.52259,1.68434 2.17784,0.44859 3.96164,1.76755 5.30071,3.99888 1.34707,2.2168 2.03555,5.07277 2.06534,8.57511 0.0168,1.97418 -0.1751,3.69682 -0.56751,5.15718 -0.38307,1.46301 -0.87662,2.49533 -1.47254,3.09486 -0.58645,0.6016 -1.26807,1.04427 -2.04181,1.32327 -0.76435,0.28123 -1.57642,0.31173 -2.43286,0.0922 -0.58815,-0.15074 -1.1745,-0.30612 -1.75896,-0.46618 z m -0.38216,-19.74727 c 0.32757,5.8501 0.4656,11.64569 0.41408,17.38678 0.32695,0.0871 0.65447,0.17278 0.98255,0.25711 0.33732,0.0867 0.64067,-0.10558 0.90714,-0.57849 0.27565,-0.48382 0.41712,-1.36381 0.41369,-2.63616 -0.009,-3.45206 -0.0748,-6.91954 -0.19655,-10.40244 -0.0821,-2.34846 -0.68739,-3.63269 -1.77749,-3.86613 -0.24794,-0.0531 -0.49575,-0.10665 -0.74342,-0.16067 z"
         style="font-style:normal;font-variant:normal;font-weight:normal;font-stretch:normal;font-size:30.5185px;font-family:'Bernard MT Condensed';-inkscape-font-specification:'Bernard MT Condensed, Normal';font-variant-ligatures:normal;font-variant-caps:normal;font-variant-numeric:normal;font-variant-east-asian:normal;fill:#ffcc00;stroke-width:0.762964"
         id="path1139" />
      <path
         d="m 221.02295,123.8438 c 1.46847,0.18145 2.73498,1.01623 3.79085,2.5137 1.06687,1.48576 1.92077,3.52403 2.5763,6.1328 0.65513,2.60723 0.97157,5.90273 0.97333,9.90059 0.002,4.79214 -0.62234,8.81778 -1.92357,12.03009 -1.29127,3.19882 -3.1572,4.69427 -5.57874,4.38645 -2.30136,-0.29254 -4.07495,-2.2081 -5.32141,-5.64925 -1.24572,-3.43909 -1.81584,-7.71716 -1.8086,-12.80509 0.007,-5.22127 0.6018,-9.34816 1.88889,-12.39054 1.29807,-3.04359 3.09987,-4.40334 5.40295,-4.11875 z m 1.17262,5.1357 c 0.003,-1.75651 -0.39604,-2.67921 -1.20125,-2.77862 -0.33753,-0.0417 -0.62499,0.13969 -0.86172,0.54497 -0.23675,0.4053 -0.35366,0.92382 -0.35207,1.55651 0.0213,8.48374 0.0105,16.96504 -0.0324,25.4439 -0.004,0.85702 0.11075,1.52664 0.34699,2.00809 0.23629,0.46738 0.51921,0.72243 0.84801,0.76381 0.36867,0.0464 0.66335,-0.16447 0.88279,-0.6309 0.22944,-0.46532 0.34367,-1.00096 0.34373,-1.60576 0,0 0.0259,-25.302 0.0259,-25.302 z"
         style="font-style:normal;font-variant:normal;font-weight:normal;font-stretch:normal;font-size:30.5185px;font-family:'Bernard MT Condensed';-inkscape-font-specification:'Bernard MT Condensed, Normal';font-variant-ligatures:normal;font-variant-caps:normal;font-variant-numeric:normal;font-variant-east-asian:normal;fill:#ffcc00;stroke-width:0.762964"
         id="path1141" />
      <path
         d="m 236.78111,126.55404 c 0.0621,-0.0679 0.23954,-0.3749 0.53521,-0.92303 0.19011,-0.3562 0.43628,-0.52995 0.7378,-0.52234 0.0715,0.002 0.34933,0.0577 0.84031,0.16494 0.002,0.002 0.003,0.005 0.005,0.008 0,0 0,0 0,0 0.094,0.14371 0.15957,0.43411 0.19748,0.8716 0.20963,2.35915 0.43298,4.71405 0.67111,7.06814 0.0349,0.37514 0.0522,0.59663 0.0513,0.66629 -0.003,0.26358 -0.0606,0.43675 -0.17205,0.51937 -0.10117,0.0825 -0.37804,0.12293 -0.82921,0.11795 -0.0342,-3.8e-4 -0.0675,-0.001 -0.10004,-0.002 0,0 0,0 0,0 -0.45342,-0.0169 -0.74925,-0.1123 -0.88713,-0.28339 -0.14725,-0.18272 -0.42478,-0.9401 -0.8245,-2.27139 -0.84765,-2.8186 -1.61093,-4.24937 -2.31198,-4.27984 -0.50065,-0.0217 -0.76088,0.45313 -0.77771,1.42952 -0.0207,1.20257 0.69384,3.64714 2.17035,7.2323 1.10618,2.70307 1.97636,4.90089 2.59502,6.60938 0.33007,0.90821 0.58848,1.67715 0.7744,2.31213 0.12893,0.42899 0.24361,0.87009 0.34412,1.32347 0.325,1.46434 0.5018,3.05654 0.53335,4.78152 0.0285,1.55865 -0.096,2.90856 -0.3787,4.05159 -0.20227,0.81817 -0.48559,1.53004 -0.85141,2.13436 -0.0604,0.0998 -0.12146,0.1962 -0.18314,0.2892 -0.83275,1.25635 -1.78438,1.89243 -2.85792,1.89238 -0.7277,-4e-5 -1.43865,-0.29228 -2.1291,-0.87782 -0.26798,-0.22849 -0.47724,-0.34495 -0.62866,-0.34837 -0.13115,-0.003 -0.23412,0.12747 -0.3088,0.39165 -0.14924,0.52794 -0.53721,0.78571 -1.164,0.76498 -0.24256,-0.008 -0.41056,-0.0703 -0.50379,-0.18597 -0.0829,-0.10122 -0.14914,-0.37728 -0.19823,-0.82794 -0.29779,-2.34724 -0.58286,-4.69372 -0.85728,-7.0429 -0.10935,-0.90294 -0.16309,-1.38257 -0.16359,-1.43869 -0.004,-0.40721 0.25862,-0.59505 0.78658,-0.56941 0.71768,0.0349 1.14265,0.18345 1.27546,0.45497 0.13296,0.27185 0.32351,0.88642 0.57674,1.84699 0.92654,3.4306 1.86356,5.14394 2.76005,5.15065 0.33243,0.002 0.59526,-0.16424 0.78854,-0.49843 0.20339,-0.33425 0.29901,-0.7524 0.28777,-1.25412 -0.0197,-0.8786 -0.27244,-1.91591 -0.75384,-3.12066 -0.47161,-1.21861 -1.04552,-2.57429 -1.7186,-4.07334 -1.6029,-3.57318 -2.72573,-6.50877 -3.36904,-8.63953 -0.63916,-2.16341 -0.94939,-4.36022 -0.92943,-6.56929 0.0225,-2.49165 0.43705,-4.44853 1.24167,-5.87805 0.80483,-1.42987 1.7804,-2.10926 2.91481,-2.05251 0.78369,0.0392 1.72001,0.56909 2.81104,1.57842 0,0 1e-5,2e-5 1e-5,2e-5 z"
         style="font-style:normal;font-variant:normal;font-weight:normal;font-stretch:normal;font-size:30.5185px;font-family:'Bernard MT Condensed';-inkscape-font-specification:'Bernard MT Condensed, Normal';font-variant-ligatures:normal;font-variant-caps:normal;font-variant-numeric:normal;font-variant-east-asian:normal;fill:#ffcc00;stroke-width:0.762964"
         id="path1143" />
      <path
         d="m 245.29398,128.02256 c -0.22632,0.006 -0.45264,0.0106 -0.67895,0.0152 -0.22123,0.004 -0.40725,0.21481 -0.55728,0.63179 -0.1488,0.40071 -0.32108,1.50661 -0.50091,3.30347 -0.0832,0.78914 -0.20037,1.28841 -0.35422,1.49855 -0.15341,0.19598 -0.45665,0.29824 -0.90912,0.30347 -0.43235,0.005 -0.71315,-0.0627 -0.8419,-0.20037 -0.11857,-0.15161 -0.17499,-0.44237 -0.16855,-0.87177 0.004,-0.24935 0.0127,-0.49873 0.0268,-0.74812 0.0867,-1.61408 0.1804,-3.22807 0.28115,-4.8421 0.0343,-0.56797 0.11472,-0.93513 0.23982,-1.10123 0.12566,-0.18022 0.42959,-0.26966 0.91239,-0.27217 3.68546,-0.0191 7.37139,-0.17034 11.04715,-0.45591 0.32098,-0.0249 0.51511,0.0136 0.5828,0.11731 0.0677,0.10377 0.11345,0.49531 0.13911,1.1753 0.0555,1.40027 0.11592,2.79939 0.18128,4.19754 0.0154,0.32577 0.0209,0.6592 0.0166,1.00035 -0.005,0.4094 -0.0491,0.72686 -0.13214,0.95262 -0.0729,0.22462 -0.31085,0.35598 -0.71374,0.39123 -0.51358,0.0449 -0.84556,0.003 -0.9949,-0.12104 -0.1393,-0.12521 -0.25036,-0.54697 -0.33078,-1.2649 -0.14445,-1.17818 -0.30318,-2.13625 -0.47992,-2.87651 -0.17638,-0.75349 -0.40399,-1.12135 -0.68545,-1.1032 -0.15078,0.01 -0.30157,0.0192 -0.45236,0.0285 -0.19057,8.80591 -0.18039,17.59051 0.0306,26.3538 0.0181,0.75054 0.2735,1.24716 0.76368,1.48542 0.20438,0.1027 0.33905,0.23921 0.40417,0.41019 0.0748,0.15642 0.11952,0.50676 0.13524,1.05172 0.02,0.69476 -0.0122,1.10783 -0.0989,1.24005 -0.0869,0.11839 -0.29111,0.19472 -0.61239,0.22742 -2.20926,0.22489 -4.42217,0.40696 -6.63816,0.54187 -0.26187,0.0159 -0.43548,-0.0431 -0.5206,-0.17613 -0.075,-0.13351 -0.12336,-0.52438 -0.14325,-1.17163 -0.0237,-0.77152 0.11957,-1.24796 0.42706,-1.43048 0.29751,-0.18202 0.48459,-0.35167 0.56099,-0.50764 0.0761,-0.16984 0.10889,-0.44724 0.0989,-0.8324 -0.23158,-8.96831 -0.24299,-17.95169 -0.0342,-26.95016 z"
         style="font-style:normal;font-variant:normal;font-weight:normal;font-stretch:normal;font-size:30.5185px;font-family:'Bernard MT Condensed';-inkscape-font-specification:'Bernard MT Condensed, Normal';font-variant-ligatures:normal;font-variant-caps:normal;font-variant-numeric:normal;font-variant-east-asian:normal;fill:#ffcc00;stroke-width:0.762964"
         id="path1145" />
      <path
         d="m 262.62287,126.82908 c -0.0461,3.8673 -0.0678,7.73121 -0.0651,11.59174 0.34281,-0.051 0.68557,-0.10299 1.02829,-0.15608 0.28222,-0.0437 0.48879,-0.15749 0.61963,-0.34028 0.1309,-0.18287 0.2313,-0.55002 0.30182,-1.1015 0.12083,-0.97768 0.21766,-1.56785 0.28822,-1.76777 0.0808,-0.20199 0.2017,-0.31588 0.36266,-0.34203 0.79537,-0.12919 1.24159,-0.1598 1.3427,-0.0821 0.11059,0.062 0.16568,0.38968 0.16585,0.98313 6.5e-4,2.24559 0.007,4.49051 0.0181,6.73477 0.002,0.41784 -0.0467,0.70302 -0.14662,0.85549 -0.0999,0.13874 -0.4121,0.25473 -0.93584,0.34385 -0.34253,0.0583 -0.57488,0.0159 -0.69676,-0.12589 -0.11183,-0.15684 -0.2258,-0.61772 -0.34043,-1.38222 -0.11434,-0.69725 -0.22668,-1.11792 -0.33823,-1.26221 -0.1014,-0.14584 -0.26296,-0.20105 -0.4848,-0.16612 -0.39324,0.0619 -0.78654,0.12248 -1.17987,0.18166 0.0153,4.65665 0.0662,9.30838 0.15254,13.95517 0.26519,-0.0427 0.53032,-0.086 0.7954,-0.1298 0.49004,-0.081 0.82196,-0.32005 0.99619,-0.71439 0.18469,-0.41103 0.46657,-1.53086 0.85695,-3.36861 0.16162,-0.77055 0.3324,-1.28634 0.51076,-1.54687 0.1785,-0.26073 0.49377,-0.43042 0.94587,-0.51147 0.6229,-0.11166 0.93629,0.0993 0.94122,0.63832 0.001,0.16164 -0.0164,0.40093 -0.0535,0.7181 -0.17083,1.56294 -0.3386,3.12471 -0.50291,4.687 -0.0887,0.85329 -0.16576,1.37318 -0.23294,1.56119 -0.0573,0.17241 -0.25516,0.28988 -0.59354,0.35098 -3.31961,0.59939 -6.65065,1.12284 -9.99108,1.5552 -0.25039,0.0324 -0.41287,-0.0219 -0.48722,-0.16216 -0.0746,-0.15361 -0.1229,-0.60404 -0.14249,-1.34994 -0.0125,-0.47482 0.15959,-0.84292 0.51571,-1.1055 0.54456,-0.38159 0.81079,-0.84491 0.79902,-1.38704 -0.18342,-8.4505 -0.2074,-16.92192 -0.0719,-25.41426 -0.006,-0.25775 -0.22753,-0.49279 -0.66466,-0.70854 -0.298,-0.14771 -0.47561,-0.30145 -0.53272,-0.45942 -0.047,-0.15882 -0.0648,-0.55249 -0.0518,-1.18005 0.011,-0.53212 0.0482,-0.84898 0.11031,-0.94992 0.0626,-0.11477 0.23902,-0.18522 0.52949,-0.21285 3.19469,-0.30386 6.37979,-0.70988 9.54832,-1.2195 0.23839,-0.0384 0.4116,-0.0128 0.51993,0.0772 0.1083,0.09 0.19057,0.33257 0.24717,0.72762 0.24047,1.69972 0.48608,3.39578 0.7363,5.09153 0.0392,0.26278 0.0588,0.44123 0.0586,0.53568 -9.1e-4,0.36379 -0.24165,0.58889 -0.72289,0.67108 -0.54119,0.0924 -0.90233,0.0705 -1.082,-0.0619 -0.17973,-0.14595 -0.3535,-0.54304 -0.51989,-1.19131 -0.30363,-1.16673 -0.56607,-1.96928 -0.79186,-2.40791 -0.2156,-0.4398 -0.46269,-0.6392 -0.74246,-0.59814 -0.33969,0.0498 -0.67952,0.0985 -1.01948,0.14606 z"
         style="font-style:normal;font-variant:normal;font-weight:normal;font-stretch:normal;font-size:30.5185px;font-family:'Bernard MT Condensed';-inkscape-font-specification:'Bernard MT Condensed, Normal';font-variant-ligatures:normal;font-variant-caps:normal;font-variant-numeric:normal;font-variant-east-asian:normal;fill:#ffcc00;stroke-width:0.762964"
         id="path1147" />
      <path
         d="m 275.50982,140.23748 c 0.0136,3.33954 0.0211,6.68146 0.0223,10.02576 1.8e-4,0.47198 0.0201,0.78452 0.0599,0.93755 0.0497,0.15083 0.17898,0.2908 0.38749,0.41963 0.26812,0.16952 0.40137,0.52384 0.40019,1.06389 -0.002,0.78279 -0.0577,1.28139 -0.16682,1.49451 -0.0993,0.19754 -0.28725,0.32718 -0.56397,0.3883 -2.09058,0.46173 -4.18652,0.8986 -6.2873,1.30675 -0.35739,0.0694 -0.54068,-0.24644 -0.54853,-0.94631 -0.008,-0.67294 0.003,-1.10672 0.0308,-1.30081 0.0278,-0.20767 0.12611,-0.36802 0.29496,-0.48147 0.5457,-0.40171 0.81541,-1.03544 0.80847,-1.89662 -0.0634,-7.88188 -0.0932,-15.76552 -0.0893,-23.65091 4.4e-4,-0.87558 -0.23786,-1.36154 -0.71466,-1.46196 -0.23846,-0.0637 -0.3874,-0.14452 -0.44671,-0.24147 -0.0593,-0.097 -0.0881,-0.40839 -0.0861,-0.9341 0.004,-1.0517 0.21506,-1.61421 0.63022,-1.69076 2.73565,-0.50437 5.45701,-1.08695 8.15954,-1.74868 1.61271,-0.39488 3.05925,0.0565 4.3635,1.37557 1.31226,1.31456 2.02025,3.36987 2.07669,6.19072 0.0802,4.00717 -1.41243,7.06708 -4.44043,9.04131 2.77459,0.13969 4.17922,2.11991 4.15753,6.06941 -0.009,1.61611 -0.0242,3.234 -0.0459,4.85366 -0.005,0.40825 0.1038,0.68589 0.32774,0.83256 0.26283,0.17752 0.38961,0.51841 0.38036,1.02326 -0.0145,0.79085 -0.0591,1.27135 -0.13071,1.43836 -0.0718,0.16742 -0.25491,0.28818 -0.54936,0.36169 -1.31543,0.32841 -2.63327,0.64881 -3.95339,0.96019 -0.47282,0.11152 -0.85869,-0.1636 -1.16024,-0.82285 -0.30147,-0.6728 -0.45086,-1.54982 -0.44684,-2.63067 0.0101,-2.72267 0.0121,-5.4428 0.006,-8.16041 -0.004,-1.59324 -0.60413,-2.24182 -1.79785,-1.96945 -0.22579,0.0515 -0.45162,0.10263 -0.67749,0.15335 z m -0.11225,-15.939 c 0.0453,4.52772 0.0792,9.05983 0.10167,13.59633 0.32616,-0.0734 0.65223,-0.14776 0.9782,-0.22295 0.99229,-0.22889 1.48302,-1.69118 1.45968,-4.36926 -0.0189,-2.16705 -0.043,-4.33249 -0.0722,-6.49632 -0.0153,-1.12876 -0.18554,-1.88279 -0.50702,-2.2627 -0.3122,-0.3962 -0.79721,-0.51459 -1.45746,-0.36109 -0.16755,0.039 -0.33515,0.0776 -0.50282,0.11599 z"
         style="font-style:normal;font-variant:normal;font-weight:normal;font-stretch:normal;font-size:30.5185px;font-family:'Bernard MT Condensed';-inkscape-font-specification:'Bernard MT Condensed, Normal';font-variant-ligatures:normal;font-variant-caps:normal;font-variant-numeric:normal;font-variant-east-asian:normal;fill:#ffcc00;stroke-width:0.762964"
         id="path1149" />
    </g>
    <path
       style="fill:#ffffff;fill-opacity:0.1496063;stroke-width:44.8349;filter:url(#filter1164)"
       d="m 287.14648,291.25977 -19.25781,25.76562 a 157.36335,38.86107 0 0 0 -6.03515,10.43555 h -0.42188 l 0.42188,409.96484 v 0.22656 a 157.36335,38.86107 0 0 0 0,0.0723 A 157.36335,38.86107 0 0 0 371,774.40234 V 309.90039 a 144.73543,35.742591 0 0 1 -83.85352,-18.64062 z"
       transform="scale(0.26458333)"
       id="path910" />
    <path
       id="path877"
       style="fill:#ffffff;fill-opacity:0.23622048;stroke-width:44.8349"
       d="M 576.57422 376.91602 A 282.8395 134.25 0 0 1 503 393.79297 L 503 770.30469 A 157.36335 38.861069 0 0 0 576.57422 737.10547 L 576.57422 737.08984 L 576.57422 376.91602 z "
       transform="scale(0.26458333)" />
    <path
       id="path938"
       style="fill:#a7a7a7;fill-opacity:1;stroke:none;stroke-width:0.825399;stroke-opacity:0.983806"
       d="m 127.3081,61.907093 -3.95083,1.120383 -5.77881,1.769028 -4.98277,1.65109 -5.39553,1.680576 -2.69246,1.510582 v 0.707611 l 9e-4,-2.3e-4 c -1.5e-4,0.376809 0.3626,0.757987 1.17727,1.130519 l 0.99946,0.456998 c 2.2145,1.012641 5.24739,0.661627 8.53324,0.05666 l 21.45775,-3.950596 c 1.9046,-0.350661 2.81635,-1.03037 2.81661,-1.73701 l 0.002,-2.3e-4 v -0.707609 l -1.80888,-1.329074 -3.21373,-1.385738 -3.12528,-0.943481 z" />
    <path
       id="rect924"
       style="fill:#f5f5f5;fill-opacity:1;stroke:none;stroke-width:0.825399;stroke-opacity:0.983806"
       d="m 125.6333,61.890377 c -0.18215,0.04557 -0.35828,0.09571 -0.5276,0.150482 l -17.80968,5.761854 c -2.70901,0.876431 -3.82414,1.953676 -1.60965,2.966316 l 0.99933,0.456968 c 2.2145,1.012641 5.24761,0.66166 8.53347,0.0567 l 21.45766,-3.950625 c 3.28585,-0.604964 3.62217,-2.18913 1.40766,-3.20177 l -3.57652,-1.635465 c -2.0761,-0.949352 -6.14236,-1.287995 -8.87467,-0.604457 z m -1.41759,1.025332 0.18966,-0.0482 c 2.46902,-0.627606 5.92674,-0.460655 7.75274,0.37433 l 3.15576,1.443057 c 1.82598,0.834985 1.30831,2.012449 -1.16072,2.640056 l -0.18964,0.04821 c -2.46902,0.627605 -5.92676,0.460656 -7.75275,-0.37433 l -3.15575,-1.443057 c -1.826,-0.834985 -1.30833,-2.012449 1.1607,-2.640056 z m -8.71282,3.445995 0.12039,-0.0306 c 1.56886,-0.398792 3.76592,-0.292766 4.92619,0.237798 l 2.00523,0.916943 c 1.16025,0.530563 0.83131,1.27878 -0.73756,1.67757 l -0.12038,0.0306 c -1.56886,0.398791 -3.76607,0.292702 -4.92633,-0.237859 l -2.00522,-0.916944 c -1.16027,-0.530564 -0.83117,-1.278718 0.73768,-1.677508 z" />
  </g>
</svg>
